<?xml version="1.0" encoding="UTF-8" standalone="no"?>
<svg
   xmlns:dc="http://purl.org/dc/elements/1.1/"
   xmlns:cc="http://creativecommons.org/ns#"
   xmlns:rdf="http://www.w3.org/1999/02/22-rdf-syntax-ns#"
   xmlns:svg="http://www.w3.org/2000/svg"
   xmlns="http://www.w3.org/2000/svg"
   xmlns:sodipodi="http://sodipodi.sourceforge.net/DTD/sodipodi-0.dtd"
   xmlns:inkscape="http://www.inkscape.org/namespaces/inkscape"
   viewBox="0 0 5717.6816 1446.3186"
   height="1446.3186"
   width="5717.6816"
   xml:space="preserve"
   id="svg2"
   version="1.1"
   sodipodi:docname="logo.svg"
   inkscape:version="0.92.4 (5da689c313, 2019-01-14)"><sodipodi:namedview
     pagecolor="#ffffff"
     bordercolor="#666666"
     borderopacity="1"
     objecttolerance="10"
     gridtolerance="10"
     guidetolerance="10"
     inkscape:pageopacity="0"
     inkscape:pageshadow="2"
     inkscape:window-width="1920"
     inkscape:window-height="1001"
     id="namedview43"
     showgrid="false"
     fit-margin-top="0"
     fit-margin-left="500"
     fit-margin-right="500"
     fit-margin-bottom="0"
     inkscape:zoom="0.1252226"
     inkscape:cx="2226.2468"
     inkscape:cy="48.74525"
     inkscape:window-x="643"
     inkscape:window-y="1431"
     inkscape:window-maximized="1"
     inkscape:current-layer="svg2" /><metadata
     id="metadata8"><rdf:RDF><cc:Work
         rdf:about=""><dc:format>image/svg+xml</dc:format><dc:type
           rdf:resource="http://purl.org/dc/dcmitype/StillImage" /><dc:title></dc:title></cc:Work></rdf:RDF></metadata><defs
     id="defs6"><clipPath
       id="clipPath18"
       clipPathUnits="userSpaceOnUse"><path
         id="path16"
         d="M 0,1434.328 H 4268.978 V 0 H 0 Z"
         inkscape:connector-curvature="0" /></clipPath></defs><g
     transform="matrix(1.3333333,0,0,-1.3333333,12.855746,1748.7121)"
     id="g10"><g
       id="g12"><g
         clip-path="url(#clipPath18)"
         id="g14"><g
           transform="translate(1490.4932,447.4431)"
           id="g20"><path
             id="path22"
             style="fill:#00a7dd;fill-opacity:1;fill-rule:nonzero;stroke:none"
             d="m 0,0 c -23.124,0 -44.549,-7.167 -62.256,-19.315 l -282.888,231.719 c -0.64,0.671 -1.311,1.343 -1.982,2.111 -1.891,1.886 -2.936,4.355 -2.936,7.042 0,2.685 1.045,5.103 2.936,7.025 1.796,1.794 4.217,2.747 7.166,2.747 h 50.203 c 96.201,0 174.289,78.059 174.289,174.024 v 69.908 c 0,96.089 -78.088,174.257 -174.228,174.257 l -124.774,0.186 c -16.91,54.401 -60.478,97.857 -114.941,114.799 v 48.045 c 0,28.419 -23.078,51.543 -51.45,51.543 -28.496,0 -51.575,-23.124 -51.575,-51.543 v -48.045 c -54.462,-16.942 -97.946,-60.398 -114.873,-114.799 h -30.152 l -95.079,-0.186 c -96.06,0 -174.241,-78.168 -174.241,-174.257 v -69.908 c 0,-96.029 78.181,-174.177 174.241,-174.177 h 48.515 c 39.177,0 71.094,-31.886 71.094,-71.188 V 12.445 c 0,-39.237 -31.917,-71.155 -71.094,-71.155 h -92.22 c -18.125,36.133 -55.351,61.006 -98.557,61.006 -60.99,0 -110.333,-49.404 -110.333,-110.317 v -1.154 -1.094 c 0,-14.413 3.14,-28.199 8.635,-40.676 16.724,-39.583 55.901,-67.408 101.698,-67.408 41.408,0 77.385,22.797 96.281,56.541 h 94.496 c 95.999,0 174.228,78.15 174.228,174.257 v 147.543 c 0,96.092 -78.229,174.257 -174.228,174.257 h -48.515 c -39.301,0 -71.139,31.902 -71.139,71.108 v 69.908 c 0,39.205 31.838,71.155 71.139,71.155 l 95.079,0.233 h 73.87 c 28.499,0 51.514,23.172 51.514,51.543 0,39.302 31.915,71.156 71.216,71.156 39.241,0 71.156,-31.854 71.156,-71.156 0,-28.371 22.97,-51.543 51.514,-51.543 l 168.495,-0.233 c 39.301,0 71.155,-31.95 71.155,-71.155 v -69.908 c 0,-39.068 -31.915,-70.951 -71.216,-70.951 h -51.14 v -0.032 c -30.057,-0.297 -58.102,-11.867 -79.07,-32.868 -21.423,-21.409 -33.165,-49.765 -33.165,-79.945 0,-29.715 11.413,-57.76 31.79,-78.543 l 311.182,-250.018 c 0,-1.109 -0.124,-2.203 -0.124,-3.325 0,-60.884 49.403,-110.319 110.284,-110.319 60.96,0 110.364,49.435 110.364,110.319 C 110.364,-49.372 60.96,0 0,0"
             inkscape:connector-curvature="0" /></g><g
           transform="translate(1052.7876,887.0383)"
           id="g24"><path
             id="path26"
             style="fill:#00a7dd;fill-opacity:1;fill-rule:nonzero;stroke:none"
             d="m 0,0 c 0,23.984 -19.472,43.548 -43.456,43.548 -24.108,0 -43.689,-19.564 -43.689,-43.548 0,-24.013 19.581,-43.596 43.689,-43.596 C -19.472,-43.596 0,-24.013 0,0"
             inkscape:connector-curvature="0" /></g><g
           transform="translate(804.7046,928.1691)"
           id="g28"><path
             id="path30"
             style="fill:#00a7dd;fill-opacity:1;fill-rule:nonzero;stroke:none"
             d="m 0,0 c -23.984,0 -43.52,-19.536 -43.52,-43.564 0,-24.016 19.536,-43.552 43.52,-43.552 23.984,0 43.517,19.536 43.517,43.552 C 43.517,-19.536 23.984,0 0,0"
             inkscape:connector-curvature="0" /></g><g
           transform="translate(2004.4609,317.5622)"
           id="g32"><path
             id="path34"
             style="fill:#00a7dd;fill-opacity:1;fill-rule:nonzero;stroke:none"
             d="m 0,0 c -21.112,0 -41.223,7.354 -59.899,21.815 -18.675,14.522 -31.665,32.197 -38.598,52.698 l -32.855,92.641 h 88.255 c 6.558,0 11.992,2.84 16.239,8.542 4.061,5.526 6.184,11.506 6.184,17.816 0,6.682 -2.123,12.788 -6.184,18.095 -4.308,5.498 -9.745,8.277 -16.3,8.277 H -156.771 V 0 h -68.968 v 288.9 h 182.642 c 25.484,0 47.405,-9.54 64.894,-28.339 17.55,-18.832 26.481,-41.538 26.481,-67.44 0,-23.533 -7.432,-44.642 -22.42,-62.77 -14.803,-18.004 -33.917,-28.685 -56.714,-31.73 l -2.872,-0.357 1.187,-2.514 C -24.735,77.995 -13.805,69.048 0,69.048 H 44.156 V 0 Z"
             inkscape:connector-curvature="0" /></g><g
           transform="translate(2482.2646,385.6569)"
           id="g36"><path
             id="path38"
             style="fill:#00a7dd;fill-opacity:1;fill-rule:nonzero;stroke:none"
             d="m 0,0 h 119.545 c 4.558,0 8.555,1.701 11.929,5.059 3.309,3.39 4.998,7.247 4.998,11.57 0,15.989 -5.686,24.08 -16.927,24.08 H 48.53 v 69.045 h 71.015 c 4.621,0 8.619,1.688 11.929,5.074 3.309,3.439 4.998,7.371 4.998,11.682 0,16.175 -5.686,24.358 -16.927,24.358 H 0 Z m -69.08,-69.016 v 288.9 h 188.625 c 23.671,0 44.22,-8.509 60.896,-25.326 16.614,-16.787 25.107,-37.32 25.107,-61.022 0,-22.89 -5.558,-42.081 -16.303,-57.133 l -0.936,-1.186 0.936,-1.219 C 199.99,59.007 205.548,42.112 205.548,23.827 v -6.945 c 0,-23.377 -8.493,-43.77 -25.107,-60.603 -16.676,-16.786 -37.225,-25.295 -60.896,-25.295 z"
             inkscape:connector-curvature="0" /></g><g
           transform="translate(2868.3799,543.0036)"
           id="g40"><path
             id="path42"
             style="fill:#00a7dd;fill-opacity:1;fill-rule:nonzero;stroke:none"
             d="m 0,0 c -22.299,0 -41.474,-8.353 -56.774,-24.872 -15.242,-16.473 -23.048,-36.306 -23.048,-58.883 0,-22.282 7.806,-41.955 23.048,-58.383 15.3,-16.568 34.475,-24.921 56.774,-24.921 21.921,0 40.909,8.353 56.211,24.921 15.302,16.459 23.047,36.133 23.047,58.383 0,22.549 -7.745,42.41 -23.047,58.883 C 40.909,-8.353 21.984,0 0,0 m 0,-236.026 c -41.16,0 -76.697,15.144 -105.491,45.14 -28.733,30.073 -43.411,66.173 -43.411,107.365 0,41.504 14.678,77.698 43.411,107.538 C -76.637,53.855 -41.16,69 0,69 41.159,69 76.572,53.855 105.241,24.017 c 28.605,-29.808 43.158,-65.972 43.158,-107.538 0,-41.252 -14.553,-77.353 -43.158,-107.365 C 76.572,-220.882 41.159,-236.026 0,-236.026"
             inkscape:connector-curvature="0" /></g><g
           transform="translate(3187.6016,316.6569)"
           id="g44"><path
             id="path46"
             style="fill:#00a7dd;fill-opacity:1;fill-rule:nonzero;stroke:none"
             d="m 0,0 c -20.734,0 -40.472,7.263 -58.648,21.547 -18.298,14.368 -31.291,31.886 -38.535,52.061 l -74.951,215.276 h 72.7 l 15.177,-43.548 H -7.243 V 176.364 H -60.334 L -32.666,96.921 C -25.982,78.37 -14.803,69 0.125,69 H 44.159 V 0 Z"
             inkscape:connector-curvature="0" /></g><path
           id="path48"
           style="fill:#69c3e1;fill-opacity:1;fill-rule:nonzero;stroke:none"
           d="m 3261.178,507.402 h 69.016 V 317.095 h -69.016 z"
           inkscape:connector-curvature="0" /><g
           transform="translate(3295.7783,527.7184)"
           id="g50"><path
             id="path52"
             style="fill:#69c3e1;fill-opacity:1;fill-rule:nonzero;stroke:none"
             d="m 0,0 c -12.427,0 -23.107,4.371 -31.665,13.085 -8.807,8.76 -13.117,19.082 -13.117,31.649 0,12.322 4.435,23.002 13.053,31.653 8.622,8.65 19.302,13.021 31.729,13.021 12.241,0 22.861,-4.371 31.544,-13.021 8.743,-8.731 13.054,-19.331 13.054,-31.653 0,-12.349 -4.311,-23.03 -13.054,-31.649 C 22.861,4.371 12.241,0 0,0"
             inkscape:connector-curvature="0" /></g><g
           transform="translate(3499.8906,316.6569)"
           id="g54"><path
             id="path56"
             style="fill:#00a7dd;fill-opacity:1;fill-rule:nonzero;stroke:none"
             d="m 0,0 c -37.473,0 -70.077,14.195 -96.872,42.205 -26.856,28.014 -40.408,62.333 -40.408,102.012 0,39.691 13.552,74.058 40.408,102.241 26.795,28.139 59.399,42.426 96.872,42.426 H 100.62 V 219.398 H 0 c -18.736,0 -34.914,-7.448 -48.092,-22.186 -12.99,-14.647 -19.674,-32.525 -19.674,-52.995 0,-20.566 6.684,-38.273 19.674,-52.762 C -34.914,76.838 -18.736,69.454 0,69.454 H 100.62 V 0 Z"
             inkscape:connector-curvature="0" /></g><g
           transform="translate(3651.2295,317.111)"
           id="g58"><path
             id="path60"
             style="fill:#00a7dd;fill-opacity:1;fill-rule:nonzero;stroke:none"
             d="m 0,0 v 69.016 h 166.512 c 4.621,0 8.557,1.685 11.742,5.043 3.371,3.358 5.059,7.416 5.059,12.024 0,19.5 -9.121,23.606 -16.801,23.606 H 63.704 c -23.357,0 -43.718,8.498 -60.583,25.328 -16.802,16.88 -25.359,37.382 -25.359,61.037 v 6.495 c 0,23.674 8.557,44.19 25.359,61.053 16.74,16.756 37.162,25.295 60.583,25.295 h 166.89 v -68.984 h -167.2 c -4.372,0 -8.245,-1.718 -11.554,-5.12 -3.374,-3.422 -4.998,-7.544 -4.998,-12.181 0,-19.737 8.931,-23.89 16.552,-23.89 h 102.929 c 23.674,0 44.22,-8.494 60.897,-25.264 16.676,-16.753 25.17,-37.193 25.17,-60.849 v -6.465 c 0,-23.655 -8.43,-44.156 -25.17,-60.849 C 210.606,8.541 190.121,0 166.512,0 Z"
             inkscape:connector-curvature="0" /></g><g
           transform="translate(1805.5933,758.4528)"
           id="g62"><path
             id="path64"
             style="fill:#00a7dd;fill-opacity:1;fill-rule:nonzero;stroke:none"
             d="m 0,0 v 69 h 166.387 c 4.624,0 8.558,1.672 11.931,5.03 3.31,3.483 4.995,7.509 4.995,12.024 0,19.532 -9.241,23.671 -16.926,23.671 H 63.647 c -23.36,0 -43.785,8.461 -60.507,25.262 -16.897,16.882 -25.423,37.384 -25.423,61.038 v 6.466 c 0,23.686 8.526,44.22 25.423,61.037 16.722,16.83 37.147,25.372 60.507,25.372 h 166.95 V 219.852 H 63.208 c -4.246,0 -8.119,-1.762 -11.492,-5.184 -3.249,-3.293 -4.871,-7.383 -4.871,-12.085 0,-19.769 8.807,-23.858 16.363,-23.858 h 103.055 c 23.674,0 44.159,-8.51 60.896,-25.264 C 243.9,136.705 252.33,116.235 252.33,92.61 V 86.115 C 252.33,62.521 243.9,42.02 227.223,25.202 210.233,8.244 190.435,0 166.387,0 Z"
             inkscape:connector-curvature="0" /></g><g
           transform="translate(2420.7412,757.986)"
           id="g66"><path
             id="path68"
             style="fill:#00a7dd;fill-opacity:1;fill-rule:nonzero;stroke:none"
             d="m 0,0 v 178.926 c 0,13.46 -4.806,24.969 -14.052,34.275 -9.305,9.337 -20.862,14.035 -34.29,14.035 -13.179,0 -24.607,-4.698 -33.913,-14.035 C -91.5,204.02 -96.246,192.45 -96.246,178.926 V 0 H -165.7 v 178.926 c 0,13.46 -4.745,24.997 -13.99,34.306 -9.37,9.306 -20.985,14.004 -34.415,14.004 -13.179,0 -24.544,-4.698 -33.79,-14.035 -9.429,-9.306 -14.114,-20.815 -14.114,-34.275 V 0 h -69.515 v 178.926 c 0,32.26 11.678,60.241 34.661,83.224 22.923,23.002 50.779,34.604 82.758,34.604 31.354,0 58.773,-11.18 81.509,-33.229 l 1.372,-1.375 1.439,1.375 c 22.919,22.049 50.277,33.229 81.443,33.229 32.228,0 60.274,-11.602 83.196,-34.604 22.921,-22.951 34.6,-50.964 34.6,-83.224 L 69.454,0 Z"
             inkscape:connector-curvature="0" /></g><g
           transform="translate(2756.7686,757.986)"
           id="g70"><path
             id="path72"
             style="fill:#00a7dd;fill-opacity:1;fill-rule:nonzero;stroke:none"
             d="m 0,0 -38.602,110.159 h -111.173 c -4.186,0 -8.12,-1.717 -11.369,-5.107 -3.434,-3.466 -5.058,-7.556 -5.058,-12.132 0,-15.878 5.622,-23.952 16.488,-23.952 H -48.655 V 0 H -149.34 c -23.421,0 -43.721,8.573 -60.519,25.327 -16.866,16.753 -25.36,37.13 -25.36,60.567 v 6.933 c 0,23.735 8.494,44.268 25.36,61.021 16.798,16.818 37.098,25.36 60.519,25.36 h 87.128 l -0.872,2.686 c -4.122,12.567 -7.931,20.984 -11.43,25.873 -6.245,8.056 -14.802,12.085 -25.295,12.085 H -210.173 V 288.9 h 110.364 c 20.924,0 41.285,-7.685 60.334,-22.721 18.049,-14.224 30.978,-31.805 38.161,-52.275 L 73.637,0 Z"
             inkscape:connector-curvature="0" /></g><g
           transform="translate(3078.9258,757.986)"
           id="g74"><path
             id="path76"
             style="fill:#00a7dd;fill-opacity:1;fill-rule:nonzero;stroke:none"
             d="m 0,0 c -21.112,0 -41.224,7.323 -59.898,21.751 -18.737,14.474 -31.73,32.261 -38.599,52.823 l -32.791,92.549 h 88.19 c 6.495,0 11.932,2.871 16.24,8.57 4.122,5.497 6.12,11.477 6.12,17.802 0,6.588 -1.998,12.664 -6.12,18.065 -4.308,5.513 -9.745,8.292 -16.24,8.292 H -156.707 V 0 h -69.017 v 288.9 h 182.626 c 25.485,0 47.406,-9.574 64.959,-28.403 17.614,-18.768 26.481,-41.473 26.481,-67.44 0,-23.469 -7.495,-44.578 -22.423,-62.678 C 11.055,112.314 -8.059,101.634 -30.856,98.622 l -2.747,-0.391 1.125,-2.484 C -24.735,77.963 -13.805,68.968 0,68.968 H 44.22 V 0 Z"
             inkscape:connector-curvature="0" /></g><g
           transform="translate(3306.459,757.986)"
           id="g78"><path
             id="path80"
             style="fill:#00a7dd;fill-opacity:1;fill-rule:nonzero;stroke:none"
             d="M 0,0 C -20.674,0 -40.472,7.259 -58.648,21.547 -76.946,35.944 -89.939,53.433 -97.122,73.653 L -172.069,288.9 h 72.51 l 15.302,-43.504 H 36.04 v -69.032 h -96.374 l 27.732,-79.476 c 6.684,-18.551 17.739,-27.92 32.79,-27.92 H 88.255 V 0 Z"
             inkscape:connector-curvature="0" /></g><g
           transform="translate(2231.7451,519.4099)"
           id="g82"><path
             id="path84"
             style="fill:#69c3e1;fill-opacity:1;fill-rule:nonzero;stroke:none"
             d="m 0,0 c -32.541,0 -58.837,-26.513 -58.837,-59.006 0,-32.525 26.296,-58.931 58.837,-58.931 32.478,0 58.959,26.406 58.959,58.931 C 58.959,-26.513 32.478,0 0,0 m -21.611,-218.79 c -2.497,0 -4.809,2.078 -4.995,4.528 l -3.438,34.323 -1.372,0.341 c -11.18,2.86 -21.8,7.263 -31.605,13.086 l -1.31,0.736 -26.609,-21.909 c -0.873,-0.639 -1.999,-1.045 -3.186,-1.045 -1.436,0 -2.747,0.546 -3.559,1.404 l -30.543,30.667 c -1.81,1.718 -1.998,4.794 -0.434,6.716 l 21.921,26.67 -0.688,1.279 c -5.871,9.76 -10.242,20.36 -13.178,31.556 l -0.374,1.407 -34.29,3.434 c -2.437,0.186 -4.497,2.482 -4.497,4.951 v 43.267 c 0,2.497 1.935,4.7 4.497,4.95 l 34.29,3.418 0.374,1.407 c 2.936,11.196 7.307,21.845 13.178,31.633 l 0.688,1.219 -21.921,26.731 c -1.564,1.921 -1.376,4.918 0.434,6.683 l 30.543,30.668 c 0.812,0.828 2.123,1.311 3.559,1.311 1.187,0 2.313,-0.39 3.186,-1.062 l 26.609,-21.797 1.31,0.701 c 9.87,5.859 20.55,10.23 31.605,13.07 l 1.372,0.389 3.438,34.307 c 0.186,2.438 2.498,4.513 4.995,4.513 h 43.283 c 2.498,0 4.684,-2.075 4.934,-4.513 l 3.373,-34.307 1.437,-0.389 c 11.18,-2.872 21.8,-7.243 31.729,-13.07 l 1.186,-0.701 26.607,21.797 c 0.936,0.672 2.062,1.062 3.184,1.062 1.44,0 2.75,-0.483 3.499,-1.343 l 30.732,-30.636 c 1.684,-1.765 1.745,-4.793 0.309,-6.651 L 106.802,5.28 107.554,4.029 c 5.806,-10.008 10.242,-20.626 13.114,-31.633 l 0.374,-1.407 34.166,-3.418 c 2.497,-0.25 4.62,-2.453 4.62,-4.95 v -43.267 c 0,-2.469 -2.123,-4.765 -4.62,-4.951 l -34.166,-3.434 -0.374,-1.407 c -2.936,-11.055 -7.368,-21.704 -13.114,-31.588 l -0.752,-1.247 21.86,-26.67 c 1.564,-1.891 1.436,-4.998 -0.309,-6.716 l -30.732,-30.667 c -0.749,-0.858 -2.059,-1.404 -3.499,-1.404 -1.122,0 -2.248,0.406 -3.184,1.045 l -26.607,21.909 -1.186,-0.736 c -10.119,-5.886 -20.735,-10.259 -31.729,-13.086 l -1.437,-0.341 -3.373,-34.323 c -0.31,-2.45 -2.436,-4.528 -4.934,-4.528 z"
             inkscape:connector-curvature="0" /></g></g></g></g></svg>